<svg xmlns="http://www.w3.org/2000/svg" viewBox="0 0 1200 630" width="1200" height="630">
  <defs>
    <linearGradient id="accentGrad" x1="0" y1="0" x2="1" y2="1">
      <stop offset="0" stop-color="#4f46e5"/>
      <stop offset="1" stop-color="#3730a3"/>
    </linearGradient>
    <pattern id="lines" width="1200" height="96" patternUnits="userSpaceOnUse">
      <rect width="1200" height="1" y="95" fill="#e9ebf0"/>
    </pattern>
  </defs>

  <rect width="1200" height="630" fill="#f4f5f7"/>
  <rect width="1200" height="630" fill="url(#lines)"/>

  <!-- logo -->
  <rect x="84" y="84" width="92" height="92" rx="22" fill="url(#accentGrad)"/>
  <path d="M112 150V112l32 38v-38" fill="none" stroke="#fff" stroke-linecap="round" stroke-linejoin="round" stroke-width="9" font-family="sans-serif"/>
  <text x="204" y="150" font-family="'Segoe UI', Arial, sans-serif" font-size="52" font-weight="800" fill="#181b21">Nawa Editor</text>
  <rect x="453" y="106" width="18" height="44" rx="3" fill="#4f46e5"/>

  <!-- badge -->
  <rect x="84" y="226" width="556" height="56" rx="28" fill="#edebfc" stroke="#c7c1f4" stroke-width="2"/>
  <text x="110" y="263" font-family="ui-monospace, Consolas, monospace" font-size="23" font-weight="700" fill="#4338ca">GRATIS · TANPA AKUN · CEPAT DI BROWSER</text>

  <!-- judul -->
  <text x="84" y="390" font-family="'Segoe UI', Arial, sans-serif" font-size="60" font-weight="800" fill="#181b21">Semua urusan kecil,</text>
  <text x="84" y="466" font-family="'Segoe UI', Arial, sans-serif" font-size="60" font-weight="800" fill="#4338ca">beres di satu editor.</text>
  <text x="84" y="572" font-family="'Segoe UI', Arial, sans-serif" font-size="27" fill="#4d5563">Kumpulan alat harian, dokumen, dan game ringan yang berjalan cepat.</text>

  <!-- panel kanan -->
  <rect x="860" y="170" width="280" height="362" rx="24" fill="#ffffff" stroke="#e3e7ec" stroke-width="2"/>
  <text x="884" y="206" font-family="ui-monospace, Consolas, monospace" font-size="16" font-weight="700" fill="#8a93a0">QR-CODE.TXT</text>
  <g fill="#181b21">
    <!-- tiruan QR (grid 13x13, sel 13px, mulai 884,228) -->
    <g transform="translate(884,228)">
      <rect x="0" y="0" width="11" height="11"/><rect x="13" y="0" width="11" height="11"/><rect x="26" y="0" width="11" height="11"/><rect x="39" y="0" width="11" height="11"/><rect x="52" y="0" width="11" height="11"/><rect x="65" y="0" width="11" height="11"/><rect x="78" y="0" width="11" height="11"/><rect x="117" y="0" width="11" height="11"/><rect x="130" y="0" width="11" height="11"/><rect x="143" y="0" width="11" height="11"/><rect x="156" y="0" width="11" height="11"/>
      <rect x="0" y="13" width="11" height="11"/><rect x="78" y="13" width="11" height="11"/><rect x="104" y="13" width="11" height="11"/><rect x="117" y="13" width="11" height="11"/><rect x="156" y="13" width="11" height="11"/>
      <rect x="0" y="26" width="11" height="11"/><rect x="26" y="26" width="11" height="11"/><rect x="39" y="26" width="11" height="11"/><rect x="52" y="26" width="11" height="11"/><rect x="78" y="26" width="11" height="11"/><rect x="117" y="26" width="11" height="11"/><rect x="143" y="26" width="11" height="11"/><rect x="156" y="26" width="11" height="11"/>
      <rect x="0" y="39" width="11" height="11"/><rect x="78" y="39" width="11" height="11"/><rect x="104" y="39" width="11" height="11"/><rect x="117" y="39" width="11" height="11"/><rect x="130" y="39" width="11" height="11"/><rect x="143" y="39" width="11" height="11"/>
      <rect x="0" y="52" width="11" height="11"/><rect x="13" y="52" width="11" height="11"/><rect x="26" y="52" width="11" height="11"/><rect x="39" y="52" width="11" height="11"/><rect x="52" y="52" width="11" height="11"/><rect x="65" y="52" width="11" height="11"/><rect x="78" y="52" width="11" height="11"/><rect x="104" y="52" width="11" height="11"/><rect x="130" y="52" width="11" height="11"/>
      <rect x="26" y="65" width="11" height="11"/><rect x="39" y="65" width="11" height="11"/><rect x="65" y="65" width="11" height="11"/><rect x="78" y="65" width="11" height="11"/><rect x="91" y="65" width="11" height="11"/><rect x="143" y="65" width="11" height="11"/><rect x="156" y="65" width="11" height="11"/>
      <rect x="0" y="78" width="11" height="11"/><rect x="13" y="78" width="11" height="11"/><rect x="26" y="78" width="11" height="11"/><rect x="52" y="78" width="11" height="11"/><rect x="78" y="78" width="11" height="11"/><rect x="104" y="78" width="11" height="11"/><rect x="130" y="78" width="11" height="11"/><rect x="143" y="78" width="11" height="11"/>
      <rect x="13" y="91" width="11" height="11"/><rect x="39" y="91" width="11" height="11"/><rect x="52" y="91" width="11" height="11"/><rect x="65" y="78" width="11" height="11"/><rect x="104" y="91" width="11" height="11"/><rect x="130" y="91" width="11" height="11"/><rect x="156" y="91" width="11" height="11"/>
      <rect x="0" y="104" width="11" height="11"/><rect x="13" y="104" width="11" height="11"/><rect x="39" y="104" width="11" height="11"/><rect x="65" y="104" width="11" height="11"/><rect x="91" y="104" width="11" height="11"/><rect x="117" y="104" width="11" height="11"/><rect x="143" y="104" width="11" height="11"/>
      <rect x="26" y="117" width="11" height="11"/><rect x="39" y="117" width="11" height="11"/><rect x="65" y="117" width="11" height="11"/><rect x="91" y="117" width="11" height="11"/><rect x="117" y="117" width="11" height="11"/><rect x="130" y="117" width="11" height="11"/><rect x="143" y="117" width="11" height="11"/><rect x="156" y="117" width="11" height="11"/>
      <rect x="13" y="130" width="11" height="11"/><rect x="52" y="130" width="11" height="11"/><rect x="65" y="130" width="11" height="11"/><rect x="91" y="130" width="11" height="11"/><rect x="104" y="130" width="11" height="11"/>
      <rect x="26" y="143" width="11" height="11"/><rect x="65" y="143" width="11" height="11"/><rect x="78" y="143" width="11" height="11"/><rect x="91" y="143" width="11" height="11"/><rect x="130" y="143" width="11" height="11"/><rect x="143" y="143" width="11" height="11"/>
      <rect x="0" y="156" width="11" height="11"/><rect x="13" y="156" width="11" height="11"/><rect x="26" y="156" width="11" height="11"/><rect x="39" y="156" width="11" height="11"/><rect x="52" y="156" width="11" height="11"/><rect x="65" y="156" width="11" height="11"/><rect x="78" y="156" width="11" height="11"/><rect x="104" y="156" width="11" height="11"/><rect x="130" y="156" width="11" height="11"/>
    </g>
  </g>
  <rect x="884" y="430" width="232" height="50" rx="12" fill="#4f46e5"/>
  <text x="1000" y="462" font-family="'Segoe UI', Arial, sans-serif" font-size="20" font-weight="700" fill="#ffffff" text-anchor="middle">Unduh PNG</text>
  <circle cx="890" cy="506" r="5" fill="#047857"/>
  <text x="904" y="512" font-family="'Segoe UI', Arial, sans-serif" font-size="17" fill="#4d5563">Diproses di perangkat</text>
</svg>
